<svg width="71" height="71" viewBox="0 0 71 71" fill="none" xmlns="http://www.w3.org/2000/svg">
<path d="M39.1979 53.2488C39.1979 51.1419 39.1961 49.6936 39.1043 48.5721C39.0147 47.4782 38.85 46.8902 38.6328 46.4643C38.1367 45.4915 37.3452 44.6966 36.3725 44.2004C35.9465 43.9833 35.355 43.8186 34.2612 43.729C33.1397 43.6372 31.6914 43.6354 29.5845 43.6354C27.4774 43.6354 26.0294 43.6372 24.9078 43.729C23.8121 43.8186 23.2228 43.9829 22.7965 44.2004C21.8225 44.6964 21.0293 45.4906 20.5327 46.4643C20.3164 46.8909 20.1504 47.479 20.0612 48.5721C19.9697 49.694 19.9676 51.142 19.9676 53.2488C19.9676 55.3553 19.9698 56.8035 20.0612 57.9255C20.1505 59.0199 20.3161 59.61 20.5327 60.0368L20.7303 60.3939C21.2277 61.204 21.9412 61.8632 22.793 62.2971L22.7965 62.3006C23.2227 62.518 23.8125 62.6824 24.9078 62.7721C26.0294 62.8638 27.4774 62.8657 29.5845 62.8657C31.6914 62.8657 33.1397 62.8639 34.2612 62.7721C35.3547 62.6824 35.9431 62.5177 36.369 62.3006C37.3423 61.8043 38.1367 61.0101 38.6328 60.0368L38.7854 59.6797C38.9274 59.2831 39.0371 58.7464 39.1043 57.9255C39.1961 56.8038 39.1979 55.3559 39.1979 53.2488ZM43.6493 55.9564C43.6612 56.722 43.6831 57.3644 43.729 57.9255C43.8187 59.0211 43.983 59.6105 44.2005 60.0368L44.4016 60.3939C44.8987 61.204 45.6094 61.8664 46.4609 62.3006C46.8868 62.5177 47.4786 62.6824 48.5721 62.7721C49.6937 62.8639 51.142 62.8657 53.2488 62.8657C55.3559 62.8657 56.8039 62.8638 57.9256 62.7721C59.0208 62.6824 59.6106 62.518 60.0368 62.3006L60.3939 62.0995C61.2045 61.6022 61.8664 60.8887 62.3006 60.0368L62.4532 59.6797C62.5951 59.2831 62.705 58.7461 62.7721 57.9255C62.8639 56.8039 62.8657 55.3558 62.8657 53.2488C62.8657 51.1419 62.8639 49.6936 62.7721 48.5721C62.6825 47.4786 62.5177 46.8902 62.3006 46.4643C61.8665 45.6128 61.2041 44.8987 60.3939 44.4015L60.0368 44.2004C59.6106 43.9829 59.0212 43.8186 57.9256 43.729C56.8039 43.6372 55.356 43.6354 53.2488 43.6354C51.142 43.6354 49.6937 43.6372 48.5721 43.729C47.4783 43.8186 46.8903 43.9833 46.4643 44.2004C45.4916 44.6966 44.6966 45.488 44.2005 46.4608C43.9833 46.8868 43.8187 47.4782 43.729 48.5721C43.6372 49.6936 43.6354 51.1419 43.6354 53.2488L43.6493 55.9564ZM62.8657 29.5844C62.8657 27.4774 62.8639 26.0294 62.7721 24.9077C62.6825 23.8124 62.5181 23.2227 62.3006 22.7964L62.2972 22.793C61.8013 21.8196 61.0099 21.0291 60.0368 20.5326C59.61 20.3161 59.02 20.1504 57.9256 20.0611C56.8036 19.9697 55.3554 19.9675 53.2488 19.9675C51.1421 19.9675 49.6941 19.9696 48.5721 20.0611C47.4779 20.1504 46.8876 20.3126 46.4609 20.5292C45.4877 21.0258 44.6963 21.8193 44.2005 22.793C43.983 23.2192 43.8187 23.8121 43.729 24.9077C43.6372 26.0294 43.6354 27.4773 43.6354 29.5844C43.6354 31.6913 43.6372 33.1396 43.729 34.2611C43.8187 35.355 43.9833 35.943 44.2005 36.369C44.6966 37.3417 45.4881 38.1367 46.4609 38.6328C46.8868 38.85 47.4783 39.0146 48.5721 39.1043C49.1328 39.1501 49.7763 39.1721 50.5413 39.184L53.2488 39.1979L55.9564 39.184C56.7221 39.1721 57.3645 39.1502 57.9256 39.1043C59.0212 39.0146 59.6106 38.8503 60.0368 38.6328L60.3939 38.4317C61.2041 37.9345 61.8665 37.2239 62.3006 36.3724C62.5177 35.9465 62.6825 35.3546 62.7721 34.2611C62.8639 33.1396 62.8657 31.6913 62.8657 29.5844ZM67.3032 29.5844C67.3032 31.6181 67.3024 33.2772 67.1923 34.6217C67.0941 35.8212 66.9001 36.9193 66.4573 37.9498L66.2528 38.3866C65.6552 39.5589 64.824 40.5859 63.8226 41.4166C64.824 42.2473 65.6552 43.2743 66.2528 44.4466L66.4573 44.8834C66.9001 45.9139 67.0941 47.012 67.1923 48.2115C67.3024 49.556 67.3032 51.2152 67.3032 53.2488C67.3032 55.2829 67.3024 56.9447 67.1923 58.2895C67.08 59.6598 66.8427 60.8984 66.2528 62.0544C65.3314 63.8615 63.8616 65.3313 62.0545 66.2527C60.8985 66.8426 59.6599 67.08 58.2896 67.1922C56.9448 67.3023 55.283 67.3032 53.2488 67.3032C51.2152 67.3032 49.5561 67.3023 48.2116 67.1922C47.0121 67.094 45.9139 66.9 44.8835 66.4573L44.4466 66.2527C43.2743 65.6551 42.2474 64.8239 41.4167 63.8225C40.7461 64.6308 39.9491 65.3294 39.0488 65.8818L38.3867 66.2527C37.2305 66.8426 35.9923 67.08 34.6217 67.1922C33.2772 67.3023 31.6181 67.3032 29.5845 67.3032C27.5503 67.3032 25.8885 67.3023 24.5438 67.1922C23.1735 67.08 21.9349 66.8426 20.7788 66.2527C18.9713 65.3317 17.499 63.8616 16.5771 62.0544C15.9895 60.8987 15.7493 59.6563 15.6376 58.286C15.528 56.942 15.5301 55.2823 15.5301 53.2488C15.5301 51.215 15.5279 49.5556 15.6376 48.2115C15.7493 46.8418 15.9898 45.6054 16.5771 44.4501C17.4992 42.6424 18.9707 41.1693 20.7788 40.2483L21.2156 40.0438C22.2463 39.6007 23.3441 39.4036 24.5438 39.3053C25.8885 39.1952 27.5503 39.1979 29.5845 39.1979C31.6181 39.1979 33.2772 39.1953 34.6217 39.3053C35.9925 39.4175 37.2303 39.6582 38.3867 40.2483L39.0488 40.6192C39.9484 41.1713 40.7465 41.8675 41.4167 42.6751C41.7964 42.2175 42.2175 41.7964 42.6751 41.4166C41.8676 40.7464 41.1714 39.9483 40.6193 39.0488L40.2484 38.3866C39.6583 37.2302 39.4176 35.9925 39.3054 34.6217C39.1953 33.2772 39.1979 31.6181 39.1979 29.5844C39.1979 27.5503 39.1953 25.8885 39.3054 24.5437C39.4037 23.344 39.6008 22.2462 40.0438 21.2156L40.2484 20.7788C41.1694 18.9706 42.639 17.4991 44.4466 16.577C45.602 15.9897 46.8419 15.7493 48.2116 15.6375C49.5557 15.5279 51.2151 15.53 53.2488 15.53C55.2823 15.53 56.942 15.528 58.2861 15.6375C59.6563 15.7493 60.8953 15.9894 62.051 16.577C63.8582 17.499 65.3283 18.9712 66.2493 20.7788C66.8392 21.9348 67.08 23.1734 67.1923 24.5437C67.3024 25.8885 67.3032 27.5503 67.3032 29.5844Z" fill="#C27CFB"/>
<path fill-rule="evenodd" clip-rule="evenodd" d="M31.8033 17.7489V17.8586C31.8033 19.8422 31.8033 21.4664 31.6958 22.7862C31.598 23.9854 31.4018 25.0843 30.9608 26.1143L30.7563 26.5511C29.9493 28.1354 28.7207 29.4613 27.2132 30.3854L26.5511 30.7564C25.3953 31.3439 24.1563 31.5841 22.7861 31.6959C21.4663 31.8034 19.8421 31.8034 17.8586 31.8033H17.7489H17.6335C15.6523 31.8034 14.0302 31.8034 12.7116 31.6959C11.3419 31.5841 10.1055 31.3436 8.95014 30.7564C7.36635 29.9495 6.03979 28.7203 5.11586 27.2133L4.74491 26.5511C4.15733 25.3954 3.91716 24.1564 3.80541 22.7862C3.69787 21.4664 3.6979 19.8425 3.69794 17.8591L3.69794 17.7489L3.69794 17.6336C3.6979 15.6523 3.69786 14.0303 3.80541 12.7117C3.91719 11.3418 4.15744 10.1022 4.74491 8.94673C5.6667 7.13761 7.13755 5.66676 8.94667 4.74497C10.1021 4.15755 11.3418 3.91725 12.7116 3.80547C14.0302 3.69793 15.6523 3.69796 17.6336 3.698L17.7489 3.698L17.859 3.698C19.8424 3.69796 21.4664 3.69793 22.7861 3.80547C23.9855 3.90329 25.0841 4.09931 26.1143 4.54043L26.5511 4.74497C28.3609 5.6668 29.8343 7.13701 30.7563 8.94673C31.3436 10.1021 31.584 11.342 31.6958 12.7117C31.8033 14.0303 31.8033 15.6523 31.8033 17.6336V17.7489ZM27.2722 13.0722C27.3637 14.1942 27.3658 15.6422 27.3658 17.7489C27.3658 19.8555 27.3636 21.3037 27.2722 22.4256C27.1829 23.5201 27.0172 24.1101 26.8007 24.5369C26.3042 25.5115 25.5115 26.3043 24.5369 26.8007C24.11 27.0173 23.52 27.183 22.4256 27.2722C21.3036 27.3636 19.8554 27.3658 17.7489 27.3658C15.6421 27.3658 14.1941 27.3637 13.0722 27.2722C12.2514 27.2052 11.715 27.0949 11.318 26.9533L10.9609 26.8007C9.98762 26.3047 9.19685 25.5135 8.70053 24.5404C8.48344 24.1134 8.31846 23.5219 8.22904 22.4256C8.13762 21.3037 8.13544 19.8555 8.13544 17.7489C8.13544 15.6422 8.13754 14.1942 8.22904 13.0722C8.31848 11.9766 8.48005 11.3843 8.69706 10.9575C9.19308 9.98519 9.98513 9.19315 10.9574 8.69712L10.9609 8.70059C11.3877 8.48357 11.9765 8.31854 13.0722 8.2291C14.1941 8.1376 15.6421 8.1355 17.7489 8.1355C19.8555 8.1355 21.3036 8.13769 22.4256 8.2291C23.5219 8.31852 24.1133 8.48004 24.5403 8.69712C25.5141 9.1934 26.3044 9.98721 26.8007 10.9609L26.9532 11.318C27.0948 11.7151 27.2052 12.2514 27.2722 13.0722Z" fill="#55EAE1"/>
</svg>
