<svg width="40" height="40" viewBox="0 0 40 40" fill="none" xmlns="http://www.w3.org/2000/svg">
<g opacity="0.4">
<path d="M22.0833 29.9993C22.0833 28.8124 22.0822 27.9964 22.0305 27.3646C21.98 26.7483 21.8873 26.4171 21.7649 26.1771C21.4854 25.629 21.0395 25.1812 20.4915 24.9017C20.2515 24.7793 19.9182 24.6866 19.302 24.6361C18.6702 24.5843 17.8542 24.5833 16.6672 24.5833C15.4801 24.5833 14.6644 24.5843 14.0325 24.6361C13.4152 24.6866 13.0832 24.7791 12.843 24.9017C12.2943 25.1811 11.8474 25.6285 11.5676 26.1771C11.4458 26.4174 11.3523 26.7488 11.302 27.3646C11.2505 27.9966 11.2493 28.8124 11.2493 29.9993C11.2493 31.1861 11.2505 32.002 11.302 32.6341C11.3523 33.2507 11.4456 33.5831 11.5676 33.8235L11.679 34.0247C11.9592 34.4812 12.3612 34.8525 12.8411 35.097L12.843 35.0989C13.0832 35.2214 13.4154 35.3141 14.0325 35.3646C14.6644 35.4163 15.4802 35.4173 16.6672 35.4173C17.8542 35.4173 18.6702 35.4163 19.302 35.3646C19.9181 35.3141 20.2495 35.2212 20.4895 35.0989C21.0378 34.8194 21.4854 34.3719 21.7649 33.8235L21.8508 33.6224C21.9308 33.3989 21.9927 33.0966 22.0305 32.6341C22.0822 32.0022 22.0833 31.1864 22.0833 29.9993ZM24.5911 31.5247C24.5978 31.9561 24.6101 32.318 24.636 32.6341C24.6865 33.2514 24.7791 33.5834 24.9016 33.8235L25.0149 34.0247C25.295 34.4812 25.6953 34.8543 26.1751 35.0989C26.415 35.2212 26.7485 35.3141 27.3645 35.3646C27.9964 35.4163 28.8123 35.4173 29.9993 35.4173C31.1863 35.4173 32.0021 35.4163 32.634 35.3646C33.2511 35.3141 33.5834 35.2214 33.8235 35.0989L34.0247 34.9857C34.4813 34.7055 34.8542 34.3035 35.0989 33.8235L35.1848 33.6224C35.2648 33.399 35.3267 33.0964 35.3645 32.6341C35.4162 32.0022 35.4172 31.1864 35.4172 29.9993C35.4172 28.8124 35.4162 27.9964 35.3645 27.3646C35.314 26.7485 35.2212 26.417 35.0989 26.1771C34.8543 25.6974 34.4811 25.295 34.0247 25.015L33.8235 24.9017C33.5833 24.7791 33.2513 24.6866 32.634 24.6361C32.0021 24.5843 31.1864 24.5833 29.9993 24.5833C28.8123 24.5833 27.9964 24.5843 27.3645 24.6361C26.7483 24.6866 26.417 24.7793 26.177 24.9017C25.629 25.1812 25.1811 25.6271 24.9016 26.1751C24.7793 26.4151 24.6865 26.7483 24.636 27.3646C24.5843 27.9964 24.5833 28.8124 24.5833 29.9993L24.5911 31.5247ZM35.4172 16.6673C35.4172 15.4802 35.4162 14.6644 35.3645 14.0325C35.314 13.4155 35.2214 13.0832 35.0989 12.8431L35.0969 12.8411C34.8176 12.2927 34.3717 11.8474 33.8235 11.5677C33.583 11.4457 33.2506 11.3524 32.634 11.3021C32.0019 11.2506 31.186 11.2493 29.9993 11.2493C28.8124 11.2493 27.9966 11.2505 27.3645 11.3021C26.748 11.3524 26.4155 11.4437 26.1751 11.5657C25.6268 11.8456 25.1809 12.2926 24.9016 12.8411C24.7791 13.0813 24.6865 13.4153 24.636 14.0325C24.5843 14.6644 24.5833 15.4802 24.5833 16.6673C24.5833 17.8543 24.5843 18.6702 24.636 19.3021C24.6865 19.9183 24.7793 20.2496 24.9016 20.4896C25.1811 21.0376 25.627 21.4855 26.1751 21.765C26.415 21.8873 26.7483 21.9801 27.3645 22.0306C27.6804 22.0564 28.0429 22.0688 28.4739 22.0755L29.9993 22.0833L31.5247 22.0755C31.956 22.0688 32.318 22.0564 32.634 22.0306C33.2513 21.9801 33.5833 21.8875 33.8235 21.765L34.0247 21.6517C34.4811 21.3716 34.8543 20.9712 35.0989 20.4915C35.2212 20.2515 35.314 19.9181 35.3645 19.3021C35.4162 18.6702 35.4172 17.8543 35.4172 16.6673ZM37.9172 16.6673C37.9172 17.813 37.9167 18.7477 37.8547 19.5052C37.7994 20.181 37.6901 20.7996 37.4407 21.3802L37.3254 21.6263C36.9888 22.2867 36.5205 22.8653 35.9563 23.3333C36.5205 23.8013 36.9888 24.3799 37.3254 25.0403L37.4407 25.2864C37.6901 25.867 37.7994 26.4857 37.8547 27.1614C37.9167 27.9189 37.9172 28.8536 37.9172 29.9993C37.9172 31.1453 37.9168 32.0816 37.8547 32.8392C37.7915 33.6112 37.6578 34.309 37.3254 34.9603C36.8063 35.9783 35.9783 36.8064 34.9602 37.3255C34.3089 37.6578 33.6111 37.7915 32.8391 37.8548C32.0815 37.9168 31.1453 37.9173 29.9993 37.9173C28.8536 37.9173 27.9189 37.9168 27.1614 37.8548C26.4856 37.7995 25.8669 37.6902 25.2864 37.4407L25.0403 37.3255C24.3798 36.9888 23.8013 36.5205 23.3333 35.9564C22.9555 36.4117 22.5065 36.8053 21.9993 37.1165L21.6262 37.3255C20.9748 37.6578 20.2773 37.7916 19.5051 37.8548C18.7477 37.9168 17.8129 37.9173 16.6672 37.9173C15.5212 37.9173 14.585 37.9168 13.8274 37.8548C13.0554 37.7915 12.3576 37.6578 11.7063 37.3255C10.688 36.8066 9.85853 35.9784 9.33911 34.9603C9.00808 34.3092 8.87278 33.6092 8.80982 32.8372C8.74812 32.08 8.74927 31.145 8.74927 29.9993C8.74927 28.8535 8.74806 27.9187 8.80982 27.1614C8.87278 26.3898 9.00826 25.6932 9.33911 25.0423C9.85861 24.0239 10.6876 23.194 11.7063 22.6751L11.9524 22.5599C12.533 22.3103 13.1515 22.1992 13.8274 22.1439C14.585 22.0818 15.5212 22.0833 16.6672 22.0833C17.8129 22.0833 18.7477 22.0819 19.5051 22.1439C20.2774 22.2071 20.9747 22.3427 21.6262 22.6751L21.9993 22.8841C22.5061 23.1951 22.9557 23.5874 23.3333 24.0423C23.5472 23.7845 23.7844 23.5473 24.0422 23.3333C23.5873 22.9558 23.1951 22.5061 22.884 21.9993L22.6751 21.6263C22.3426 20.9748 22.207 20.2775 22.1438 19.5052C22.0818 18.7477 22.0833 17.813 22.0833 16.6673C22.0833 15.5213 22.0818 14.5851 22.1438 13.8275C22.1992 13.1516 22.3102 12.5331 22.5598 11.9525L22.6751 11.7064C23.1939 10.6877 24.0219 9.85867 25.0403 9.33917C25.6912 9.00832 26.3897 8.87284 27.1614 8.80988C27.9186 8.74812 28.8535 8.74933 29.9993 8.74933C31.1449 8.74933 32.0799 8.74818 32.8372 8.80988C33.6091 8.87284 34.3071 9.00814 34.9583 9.33917C35.9764 9.85859 36.8046 10.688 37.3235 11.7064C37.6558 12.3576 37.7915 13.0555 37.8547 13.8275C37.9168 14.5851 37.9172 15.5213 37.9172 16.6673Z" fill="#727297"/>
<path fill-rule="evenodd" clip-rule="evenodd" d="M17.9172 9.99939V10.0612C17.9173 11.1787 17.9173 12.0937 17.8567 12.8373C17.8016 13.5129 17.6911 14.132 17.4426 14.7123L17.3274 14.9584C16.8728 15.8509 16.1806 16.5979 15.3313 17.1185L14.9583 17.3275C14.3071 17.6585 13.6091 17.7939 12.8372 17.8568C12.0936 17.9174 11.1786 17.9174 10.0611 17.9174H9.99927H9.9343C8.81809 17.9174 7.90426 17.9174 7.16138 17.8568C6.38972 17.7938 5.69314 17.6584 5.04224 17.3275C4.14997 16.8729 3.40261 16.1805 2.88208 15.3314L2.6731 14.9584C2.34206 14.3073 2.20676 13.6092 2.1438 12.8373C2.08322 12.0938 2.08323 11.1789 2.08325 10.0614L2.08325 9.99939L2.08325 9.93444C2.08323 8.81822 2.08321 7.90439 2.1438 7.1615C2.20678 6.38973 2.34213 5.69139 2.6731 5.04041C3.19241 4.02118 4.02106 3.19254 5.04028 2.67322C5.69125 2.34228 6.38963 2.2069 7.16138 2.14392C7.90427 2.08333 8.81809 2.08335 9.93431 2.08337L9.99927 2.08338L10.0613 2.08337C11.1787 2.08335 12.0936 2.08334 12.8372 2.14392C13.5129 2.19903 14.1318 2.30947 14.7122 2.55799L14.9583 2.67322C15.9779 3.19256 16.808 4.02085 17.3274 5.04041C17.6582 5.69131 17.7937 6.38984 17.8567 7.1615C17.9173 7.90439 17.9173 8.81821 17.9172 9.93442V9.99939ZM15.3645 7.36463C15.4161 7.9967 15.4172 8.81249 15.4172 9.99939C15.4172 11.1862 15.416 12.0021 15.3645 12.6342C15.3142 13.2507 15.2209 13.5832 15.0989 13.8236C14.8192 14.3727 14.3726 14.8193 13.8235 15.099C13.583 15.221 13.2506 15.3143 12.634 15.3646C12.0019 15.4161 11.186 15.4174 9.99927 15.4174C8.81237 15.4174 7.99658 15.4162 7.3645 15.3646C6.90208 15.3269 6.59991 15.2647 6.37622 15.1849L6.17505 15.099C5.62673 14.8195 5.18123 14.3738 4.90161 13.8256C4.77931 13.585 4.68636 13.2518 4.63599 12.6342C4.58448 12.0021 4.58325 11.1862 4.58325 9.99939C4.58325 8.81249 4.58444 7.9967 4.63599 7.36463C4.68637 6.74737 4.7774 6.4137 4.89966 6.17322C5.17911 5.62545 5.62533 5.17923 6.1731 4.89978L6.17505 4.90174C6.41553 4.77947 6.74725 4.68649 7.3645 4.63611C7.99658 4.58456 8.81237 4.58338 9.99927 4.58338C11.1861 4.58338 12.0019 4.58461 12.634 4.63611C13.2517 4.68648 13.5849 4.77748 13.8254 4.89978C14.374 5.17937 14.8193 5.62659 15.0989 6.17517L15.1848 6.37634C15.2646 6.60004 15.3268 6.9022 15.3645 7.36463Z" fill="#ADADC3"/>
</g>
</svg>
