<svg width="16" height="16" viewBox="0 0 16 16" fill="none" xmlns="http://www.w3.org/2000/svg">
<path d="M7.33354 4C7.33354 3.63181 7.63175 3.3336 7.99994 3.3336C8.36813 3.3336 8.66635 3.63181 8.66635 4V7.5875L10.9648 8.73672C11.294 8.90133 11.4276 9.30199 11.2632 9.63125C11.0986 9.9605 10.698 10.0942 10.3687 9.92969L7.70151 8.5961C7.47583 8.48311 7.33354 8.2524 7.33354 8V4Z" fill="#8FE93C"/>
<path d="M13.9997 7.99974C13.9995 4.68615 11.3133 1.99974 7.99968 1.99974C4.68618 1.99988 1.99982 4.68624 1.99968 7.99974C1.99968 11.3134 4.68609 13.9996 7.99968 13.9997C11.3134 13.9997 13.9997 11.3135 13.9997 7.99974ZM15.3333 7.99974C15.3333 12.0498 12.0498 15.3333 7.99968 15.3333C3.94971 15.3332 0.66687 12.0497 0.66687 7.99974C0.667011 3.94986 3.9498 0.667072 7.99968 0.666931C12.0497 0.666931 15.3331 3.94977 15.3333 7.99974Z" fill="#8FE93C"/>
</svg>
